HIERARCHY
ROOT Hips
{
  OFFSET 5.84602e-005 68.8428 3.50346
  CHANNELS 6 Xposition Yposition Zposition Zrotation Xrotation Yrotation
  JOINT Spine
  {
    OFFSET 0 8.597 -4.6522
    CHANNELS 3 Zrotation Xrotation Yrotation
    JOINT Spine1
    {
      OFFSET 0 7.8454 0.4098
      CHANNELS 3 Zrotation Xrotation Yrotation
      JOINT Spine2
      {
        OFFSET 0 9.7078 -2.1609
        CHANNELS 3 Zrotation Xrotation Yrotation
        JOINT Neck
        {
          OFFSET 0 21.8761 -0.4549
          CHANNELS 3 Zrotation Xrotation Yrotation
          JOINT Head
          {
            OFFSET 0 12.3537 3.3602
            CHANNELS 3 Zrotation Xrotation Yrotation
            End Site
            {
              OFFSET 0.0001 18.9506 0.5657
            }
          }
        }
        JOINT LeftShoulder
        {
          OFFSET 2.2086 21.1115 7.2329
          CHANNELS 3 Zrotation Xrotation Yrotation
          JOINT LeftArm
          {
            OFFSET 13.1193 3.0282 -4.8998
            CHANNELS 3 Zrotation Xrotation Yrotation
            JOINT LeftForeArm
            {
              OFFSET 27.4081 -0.0973053 -0.2375
              CHANNELS 3 Zrotation Xrotation Yrotation
              JOINT LeftHand
              {
                OFFSET 22.8641 0.0662994 -0.1369
                CHANNELS 3 Zrotation Xrotation Yrotation
                JOINT LeftHandIndex1
                {
                  OFFSET 8.8614 0.775009 2.4612
                  CHANNELS 3 Zrotation Xrotation Yrotation
                  JOINT LeftHandIndex2
                  {
                    OFFSET 3.3146 -0.808304 0.5841
                    CHANNELS 3 Zrotation Xrotation Yrotation
                    JOINT LeftHandIndex3
                    {
                      OFFSET 2.2628 -0.552002 0.3989
                      CHANNELS 3 Zrotation Xrotation Yrotation
                      End Site
                      {
                        OFFSET 1.6102 -0.4807 0.2612
                      }
                    }
                  }
                }
                JOINT LeftHandMiddle1
                {
                  OFFSET 8.9937 0.895004 0.2143
                  CHANNELS 3 Zrotation Xrotation Yrotation
                  JOINT LeftHandMiddle2
                  {
                    OFFSET 4.0984 0.0113983 -0.0242
                    CHANNELS 3 Zrotation Xrotation Yrotation
                    JOINT LeftHandMiddle3
                    {
                      OFFSET 2.2716 0.00689697 -0.0138001
                      CHANNELS 3 Zrotation Xrotation Yrotation
                      End Site
                      {
                        OFFSET 2.0404 -0.1441 0.0027
                      }
                    }
                  }
                }
                JOINT LeftHandRing1
                {
                  OFFSET 8.5234 0.597198 -2.0164
                  CHANNELS 3 Zrotation Xrotation Yrotation
                  JOINT LeftHandRing2
                  {
                    OFFSET 3.7188 -0.188293 -0.2328
                    CHANNELS 3 Zrotation Xrotation Yrotation
                    JOINT LeftHandRing3
                    {
                      OFFSET 2.1191 -0.106598 -0.1332
                      CHANNELS 3 Zrotation Xrotation Yrotation
                      End Site
                      {
                        OFFSET 1.8737 -0.2304 -0.0886
                      }
                    }
                  }
                }
                JOINT LeftHandPinky1
                {
                  OFFSET 7.9094 -0.601089 -3.4825
                  CHANNELS 3 Zrotation Xrotation Yrotation
                  JOINT LeftHandPinky2
                  {
                    OFFSET 2.2874 -0.477005 -0.6314
                    CHANNELS 3 Zrotation Xrotation Yrotation
                    JOINT LeftHandPinky3
                    {
                      OFFSET 1.6774 -0.349396 -0.4633
                      CHANNELS 3 Zrotation Xrotation Yrotation
                      End Site
                      {
                        OFFSET 1.4888 -0.4091 -0.3416
                      }
                    }
                  }
                }
                JOINT LeftHandThumb1
                {
                  OFFSET 1.833 -1.3875 1.3896
                  CHANNELS 3 Zrotation Xrotation Yrotation
                  JOINT LeftHandThumb2
                  {
                    OFFSET 3.4129 -1.121 2.5732
                    CHANNELS 3 Zrotation Xrotation Yrotation
                    JOINT LeftHandThumb3
                    {
                      OFFSET 2.2474 -0.804199 1.6192
                      CHANNELS 3 Zrotation Xrotation Yrotation
                      End Site
                      {
                        OFFSET 1.6527 -0.5689 1.1317
                      }
                    }
                  }
                }
              }
            }
          }
        }
        JOINT RightShoulder
        {
          OFFSET -2.2086 21.1115 7.2329
          CHANNELS 3 Zrotation Xrotation Yrotation
          JOINT RightArm
          {
            OFFSET -13.1216 3.0287 -4.9007
            CHANNELS 3 Zrotation Xrotation Yrotation
            JOINT RightForeArm
            {
              OFFSET -27.4081 -0.0973053 -0.2375
              CHANNELS 3 Zrotation Xrotation Yrotation
              JOINT RightHand
              {
                OFFSET -22.8641 0.0664063 -0.1369
                CHANNELS 3 Zrotation Xrotation Yrotation
                JOINT RightHandIndex1
                {
                  OFFSET -8.8614 0.774994 2.4612
                  CHANNELS 3 Zrotation Xrotation Yrotation
                  JOINT RightHandIndex2
                  {
                    OFFSET -3.3146 -0.808304 0.5841
                    CHANNELS 3 Zrotation Xrotation Yrotation
                    JOINT RightHandIndex3
                    {
                      OFFSET -2.2628 -0.552002 0.3989
                      CHANNELS 3 Zrotation Xrotation Yrotation
                      End Site
                      {
                        OFFSET -1.6102 -0.4807 0.2612
                      }
                    }
                  }
                }
                JOINT RightHandMiddle1
                {
                  OFFSET -8.9937 0.894989 0.2143
                  CHANNELS 3 Zrotation Xrotation Yrotation
                  JOINT RightHandMiddle2
                  {
                    OFFSET -4.0984 0.0113983 -0.0242
                    CHANNELS 3 Zrotation Xrotation Yrotation
                    JOINT RightHandMiddle3
                    {
                      OFFSET -2.2716 0.00691223 -0.0138001
                      CHANNELS 3 Zrotation Xrotation Yrotation
                      End Site
                      {
                        OFFSET -2.0404 -0.1441 0.0027
                      }
                    }
                  }
                }
                JOINT RightHandRing1
                {
                  OFFSET -8.5234 0.597198 -2.0164
                  CHANNELS 3 Zrotation Xrotation Yrotation
                  JOINT RightHandRing2
                  {
                    OFFSET -3.7188 -0.188309 -0.2328
                    CHANNELS 3 Zrotation Xrotation Yrotation
                    JOINT RightHandRing3
                    {
                      OFFSET -2.1191 -0.106598 -0.1332
                      CHANNELS 3 Zrotation Xrotation Yrotation
                      End Site
                      {
                        OFFSET -1.8737 -0.2304 -0.0886
                      }
                    }
                  }
                }
                JOINT RightHandPinky1
                {
                  OFFSET -7.9094 -0.601105 -3.4825
                  CHANNELS 3 Zrotation Xrotation Yrotation
                  JOINT RightHandPinky2
                  {
                    OFFSET -2.2874 -0.477005 -0.6314
                    CHANNELS 3 Zrotation Xrotation Yrotation
                    JOINT RightHandPinky3
                    {
                      OFFSET -1.6774 -0.349396 -0.4633
                      CHANNELS 3 Zrotation Xrotation Yrotation
                      End Site
                      {
                        OFFSET -1.4888 -0.4091 -0.3416
                      }
                    }
                  }
                }
                JOINT RightHandThumb1
                {
                  OFFSET -1.833 -1.38751 1.3896
                  CHANNELS 3 Zrotation Xrotation Yrotation
                  JOINT RightHandThumb2
                  {
                    OFFSET -3.41299 -1.12099 2.5732
                    CHANNELS 3 Zrotation Xrotation Yrotation
                    JOINT RightHandThumb3
                    {
                      OFFSET -2.24741 -0.804108 1.6192
                      CHANNELS 3 Zrotation Xrotation Yrotation
                      End Site
                      {
                        OFFSET -1.6527 -0.5689 1.1317
                      }
                    }
                  }
                }
              }
            }
          }
        }
      }
    }
  }
  JOINT RightUpLeg
  {
    OFFSET -9.1966 3.8861 -0.7581
    CHANNELS 3 Zrotation Xrotation Yrotation
    JOINT RightLeg
    {
      OFFSET -0.7359 -41.0265 0
      CHANNELS 3 Zrotation Xrotation Yrotation
      JOINT RightFoot
      {
        OFFSET 0 -40.2855 0
        CHANNELS 3 Zrotation Xrotation Yrotation
        JOINT RightToeBase
        {
          OFFSET 0 -5.6122 11.7359
          CHANNELS 3 Zrotation Xrotation Yrotation
          End Site
          {
            OFFSET 0 0 7.8731
          }
        }
      }
    }
  }
  JOINT LeftUpLeg
  {
    OFFSET 9.1965 3.8864 -0.7581
    CHANNELS 3 Zrotation Xrotation Yrotation
    JOINT LeftLeg
    {
      OFFSET 0.7359 -41.0268 0
      CHANNELS 3 Zrotation Xrotation Yrotation
      JOINT LeftFoot
      {
        OFFSET 0 -40.2855 0
        CHANNELS 3 Zrotation Xrotation Yrotation
        JOINT LeftToeBase
        {
          OFFSET 0 -5.6122 11.7359
          CHANNELS 3 Zrotation Xrotation Yrotation
          End Site
          {
            OFFSET 0 0 7.8731
          }
        }
      }
    }
  }
}
MOTION
Frames:	4
Frame Time:	0.0333333
5.84602e-005 68.8428 3.50346 0 0 -0 0 0 -0 0 0 -0 0 0 -0 0 0 -0 0 0 -0 0 0 -0 0 0 -0 0 0 -0 0 0 -0 0 0 -0 0 0 -0 0 0 -0 0 0 -0 -0.0146107 -8.87603e-005 -2.63497e-007 2.99804e-018 -2.42657e-020 -1.42182e-022 0 0 -0 -0.0187562 -0.001176 5.858e-005 5.06224e-018 3.88251e-019 1.21329e-020 0 0 -0 -0.012269 -0.00324817 0.000675346 -1.74678e-018 3.88251e-019 -0 0 0 -0 0 0 -0 0 0 -0 0 0 -0 0 0 -0 0 0 -0 0 0 -0 0 0 -0 0 0 -0 0 0 -0 0 0 -0 0.0149955 -9.10982e-005 2.64101e-007 -9.69331e-018 1.21329e-020 -4.7394e-023 0 0 -0 0.0189956 -0.00119102 -5.96516e-005 -5.41541e-019 0 2.42657e-020 0 0 -0 0.0122698 -0.00324857 -0.000673756 -2.00796e-019 0 -1.94126e-019 0 0 -0 0 0 -0 0 0 -0 3.39842 1.33031 -0.0637918 -5.65207e-008 0.834868 -0.000436188 -3.39935 -2.16518 -0.0642563 -8.89002e-024 -1.18485e-023 -1.48106e-024 -3.39844 1.35642 0.0640283 -3.18788e-007 0.782166 -0.000588827 3.39931 -2.13858 0.0634662 1.1399e-023 0 -0 
43.7198 33.931 23.6106 168.754 54.1919 -5.0937e-008 -0.182302 -1.53533 0.146206 -0.360887 -3.07109 0.287674 -0.360885 -3.07108 0.287677 5.22749e-006 16.993 -3.91065e-006 -2.07843e-006 12.239 3.0776e-007 6.54473 1.57062 19.1285 -25.1705 59.5907 37.632 37.5694 47.4087 -79.572 0.596568 -1.43318 8.73039 -8.13067e-007 2.06982e-007 -3.03001e-007 -4.74494e-008 6.16503e-007 1.57582e-007 -4.77995e-007 -2.2399e-007 7.77962e-008 -8.13067e-007 2.06982e-007 -3.03001e-007 -0.0146143 -8.91376e-005 -1.73334e-006 -4.77996e-007 -2.24e-007 7.7768e-008 -8.13067e-007 2.06982e-007 -3.03001e-007 -0.018745 -0.00117399 5.46562e-005 -4.77995e-007 -2.24003e-007 7.77644e-008 -8.13067e-007 2.06982e-007 -3.03001e-007 -0.012281 -0.0032487 0.000670776 -4.77995e-007 -2.23996e-007 7.77858e-008 -8.13067e-007 2.06982e-007 -3.03001e-007 -4.74494e-008 6.16503e-007 1.57582e-007 -4.77995e-007 -2.2399e-007 7.77962e-008 -6.56284 1.57164 -19.1402 25.1781 59.5831 -37.644 -37.5883 47.3952 79.5598 -0.60908 -1.42948 -8.72726 -2.1406e-006 -8.9634e-007 6.58769e-007 -3.65907e-006 -2.74211e-007 1.04264e-006 7.67744e-007 5.49794e-007 3.03694e-006 -2.1406e-006 -8.9634e-007 6.58769e-007 0.01494 -9.27949e-005 8.44137e-006 7.67584e-007 5.50191e-007 3.03686e-006 -2.1406e-006 -8.9634e-007 6.58769e-007 0.0189616 -0.00119226 -6.21541e-005 -3.92059e-007 5.11868e-007 1.26269e-006 -2.1406e-006 -8.9634e-007 6.58769e-007 0.0122787 -0.00325292 -0.000680972 -3.91125e-007 5.12074e-007 1.26281e-006 -2.1406e-006 -8.9634e-007 6.58769e-007 -3.65907e-006 -2.74211e-007 1.04264e-006 7.67744e-007 5.49794e-007 3.03694e-006 -42.2062 35.9124 -28.6953 -76.2882 37.4505 75.4032 20.6135 13.9274 11.0901 3.44504e-006 -7.76166e-007 -1.198e-006 42.2281 35.0687 28.932 78.0144 37.8391 -76.843 -20.3347 13.2975 -11.354 0 0 -3.18055e-015 
39.738 37.0697 22.5116 -179.996 51.0054 8.95158e-011 -0.170621 -1.55056 0.138719 -0.337671 -3.10146 0.272967 -0.337671 -3.10146 0.272967 -2.93638e-006 15.9932 2.17433e-006 7.88027e-008 13.5395 8.10315e-008 6.29657 1.64612 18.4585 -19.989 57.0022 32.3095 32.0965 48.6369 -73.317 0.511806 -0.948231 7.95671 1.61839e-006 1.94393e-007 5.64396e-007 -7.605e-007 -3.22295e-007 2.06376e-007 6.63112e-007 7.72491e-007 -1.18352e-006 1.61839e-006 1.94393e-007 5.64396e-007 -0.0145943 -9.01465e-005 1.44641e-006 7.60492e-007 3.22321e-007 -2.06336e-007 1.61839e-006 1.94393e-007 5.64396e-007 -0.0187439 -0.00117778 5.18724e-005 6.65647e-007 7.72844e-007 -1.18341e-006 1.61839e-006 1.94393e-007 5.64396e-007 -0.0122271 -0.00324005 0.000676675 8.56235e-007 -1.28433e-007 7.70827e-007 1.61839e-006 1.94393e-007 5.64396e-007 -7.605e-007 -3.22295e-007 2.06376e-007 6.63112e-007 7.72491e-007 -1.18352e-006 -6.30041 1.6345 -18.4446 20.0248 56.9874 -32.3561 -32.116 48.6231 73.3074 -0.515655 -0.935055 -7.96874 -1.86731e-006 4.3795e-007 -2.12614e-006 -3.74595e-006 -8.5567e-007 -2.32074e-006 -1.86731e-006 4.3795e-007 -2.12614e-006 -1.86731e-006 4.3795e-007 -2.12614e-006 0.0150157 -9.13926e-005 -1.15744e-006 -1.86816e-006 4.37676e-007 -2.1262e-006 -1.86731e-006 4.3795e-007 -2.12614e-006 0.0190165 -0.00119238 -5.95892e-005 -1.86841e-006 4.37663e-007 -2.12619e-006 -1.86731e-006 4.3795e-007 -2.12614e-006 0.0122485 -0.00324297 -0.00067368 -1.86807e-006 4.37895e-007 -2.1261e-006 -1.86731e-006 4.3795e-007 -2.12614e-006 -3.74595e-006 -8.5567e-007 -2.32074e-006 -1.86731e-006 4.3795e-007 -2.12614e-006 -41.4228 33.5656 -27.1351 -70.4229 38.8022 70.7243 17.9513 13.1398 11.8254 1.75974e-007 -8.20521e-007 1.42286e-007 41.5374 33.3846 26.9311 70.9779 39.0972 -71.0889 -18.0792 12.8668 -12.0592 -1.50664e-006 6.41477e-008 1.775e-006 
39.7376 37.07 22.5113 -179.996 51.0054 8.95158e-011 -0.171139 -1.65041 0.137806 -0.338515 -3.3012 0.270847 -0.338515 -3.3012 0.270847 -1.75757e-005 15.9931 8.87554e-006 -1.75783e-007 15.4529 -1.24515e-008 6.39717 1.79628 18.8889 -19.962 57.0101 32.2765 32.0965 48.6369 -73.317 0.477956 -0.567947 7.7115 9.1121e-008 -4.72869e-007 9.17598e-007 -0 -1.59028e-015 -0 -9.1121e-008 4.72869e-007 -9.17598e-007 9.1121e-008 -4.72869e-007 9.17598e-007 -0.0146169 -8.94699e-005 1.35008e-006 0 4.77083e-015 -0 9.1121e-008 -4.72869e-007 9.17598e-007 -0.0187353 -0.00117401 6.11056e-005 -3.18055e-015 1.59028e-015 -0 9.1121e-008 -4.72869e-007 9.17598e-007 -0.0122284 -0.00323524 0.00067295 3.18055e-015 -6.36111e-015 -9.54166e-015 9.1121e-008 -4.72869e-007 9.17598e-007 -0 -1.59028e-015 -0 -9.1121e-008 4.72869e-007 -9.17598e-007 -6.38863 1.77263 -18.8516 20.0248 56.9874 -32.3561 -32.116 48.6231 73.3074 -0.474243 -0.545587 -7.73778 -1.60186e-006 6.57855e-008 -2.85136e-006 -7.65136e-007 3.09865e-007 2.09181e-007 -1.60186e-006 6.57855e-008 -2.85136e-006 -1.60186e-006 6.57855e-008 -2.85136e-006 0.0149928 -8.81188e-005 3.89776e-006 -1.60169e-006 6.54115e-008 -2.85137e-006 -1.60186e-006 6.57855e-008 -2.85136e-006 0.0189783 -0.00118761 -5.96505e-005 -1.60167e-006 6.52989e-008 -2.85136e-006 -1.60186e-006 6.57855e-008 -2.85136e-006 0.012258 -0.0032445 -0.000682523 -2.21731e-006 2.86205e-007 -4.71365e-006 -1.60186e-006 6.57855e-008 -2.85136e-006 -7.65136e-007 3.09865e-007 2.09181e-007 -1.60186e-006 6.57855e-008 -2.85136e-006 -42.47 33.2096 -27.6718 -70.4197 38.8017 70.704 16.6935 13.3918 13.0569 -3.59185e-006 -1.66841e-007 -1.51675e-006 42.2801 33.1286 27.3727 70.977 39.097 -71.076 -17.1848 13.0615 -12.9388 1.64092e-006 -3.51144e-007 -1.3389e-007 
